<svg width="35" height="35" viewBox="0 0 35 35" fill="none" xmlns="http://www.w3.org/2000/svg">
<g clip-path="url(#clip0_147_1095)">
<path d="M27.7083 21.875H26.25C25.4435 21.875 24.7917 21.2231 24.7917 20.4167C24.7917 19.6102 25.4435 18.9583 26.25 18.9583H27.7083C28.5148 18.9583 29.1667 19.6102 29.1667 20.4167C29.1667 21.2231 28.5148 21.875 27.7083 21.875ZM29.1667 26.25C29.1667 25.4435 28.5148 24.7917 27.7083 24.7917H26.25C25.4435 24.7917 24.7917 25.4435 24.7917 26.25C24.7917 27.0565 25.4435 27.7083 26.25 27.7083H27.7083C28.5148 27.7083 29.1667 27.0565 29.1667 26.25ZM23.3333 8.75C23.3333 7.94354 22.6815 7.29167 21.875 7.29167H20.4167C19.6102 7.29167 18.9583 7.94354 18.9583 8.75C18.9583 9.55646 19.6102 10.2083 20.4167 10.2083H21.875C22.6815 10.2083 23.3333 9.55646 23.3333 8.75ZM29.1667 8.75C29.1667 7.94354 28.5148 7.29167 27.7083 7.29167H26.25C25.4435 7.29167 24.7917 7.94354 24.7917 8.75C24.7917 9.55646 25.4435 10.2083 26.25 10.2083H27.7083C28.5148 10.2083 29.1667 9.55646 29.1667 8.75ZM29.1667 14.5833C29.1667 13.7769 28.5148 13.125 27.7083 13.125H26.25C25.4435 13.125 24.7917 13.7769 24.7917 14.5833C24.7917 15.3898 25.4435 16.0417 26.25 16.0417H27.7083C28.5148 16.0417 29.1667 15.3898 29.1667 14.5833ZM35 27.7083V7.29167C35 3.27104 31.729 0 27.7083 0H20.4167C16.396 0 13.125 3.27104 13.125 7.29167C13.125 8.09813 13.7769 8.75 14.5833 8.75C15.3898 8.75 16.0417 8.09813 16.0417 7.29167C16.0417 4.87958 18.0046 2.91667 20.4167 2.91667H27.7083C30.1204 2.91667 32.0833 4.87958 32.0833 7.29167V27.7083C32.0833 30.1204 30.1204 32.0833 27.7083 32.0833H26.25C25.4435 32.0833 24.7917 32.7352 24.7917 33.5417C24.7917 34.3481 25.4435 35 26.25 35H27.7083C31.729 35 35 31.729 35 27.7083ZM23.3333 28.4375V22.3825C23.3333 20.125 22.314 18.0338 20.5348 16.6396L16.1598 13.214C13.5144 11.146 9.81896 11.1446 7.17354 13.214L2.79854 16.6381C1.01938 18.0308 0 20.1235 0 22.381V28.436C0 32.0542 2.94438 34.9985 6.5625 34.9985H16.7708C20.389 34.9985 23.3333 32.0556 23.3333 28.4375ZM14.3631 15.5123L18.7381 18.9365C19.8042 19.7721 20.4167 21.0292 20.4167 22.3825V28.4375C20.4167 30.4485 18.7819 32.0833 16.7708 32.0833H6.5625C4.55146 32.0833 2.91667 30.4485 2.91667 28.4375V22.3825C2.91667 21.0277 3.52917 19.7721 4.59521 18.9365L8.97021 15.5138C9.76354 14.8925 10.7144 14.5819 11.6667 14.5819C12.619 14.5819 13.5698 14.8925 14.3631 15.5123ZM14.5833 26.25V23.3333C14.5833 22.5283 13.93 21.875 13.125 21.875H10.2083C9.40333 21.875 8.75 22.5283 8.75 23.3333V26.25C8.75 27.055 9.40333 27.7083 10.2083 27.7083H13.125C13.93 27.7083 14.5833 27.055 14.5833 26.25Z" fill="#2153A6"/>
</g>
<defs>
<clipPath id="clip0_147_1095">
<rect width="35" height="35" fill="white"/>
</clipPath>
</defs>
</svg>
