<svg width="35" height="35" viewBox="0 0 35 35" fill="none" xmlns="http://www.w3.org/2000/svg">
<g clip-path="url(#clip0_147_1106)">
<path d="M11.6667 17.5H8.75C7.14146 17.5 5.83333 18.8081 5.83333 20.4167V23.3333C5.83333 24.9419 7.14146 26.25 8.75 26.25H11.6667C13.2752 26.25 14.5833 24.9419 14.5833 23.3333V20.4167C14.5833 18.8081 13.2752 17.5 11.6667 17.5ZM8.75 23.3333V20.4167H11.6667V23.3333H8.75ZM27.7083 2.91667H26.25V1.45833C26.25 0.653333 25.5981 0 24.7917 0C23.9852 0 23.3333 0.653333 23.3333 1.45833V2.91667H11.6667V1.45833C11.6667 0.653333 11.0148 0 10.2083 0C9.40188 0 8.75 0.653333 8.75 1.45833V2.91667H7.29167C3.27104 2.91667 0 6.18771 0 10.2083V27.7083C0 31.729 3.27104 35 7.29167 35H27.7083C31.729 35 35 31.729 35 27.7083V10.2083C35 6.18771 31.729 2.91667 27.7083 2.91667ZM7.29167 5.83333H27.7083C30.1204 5.83333 32.0833 7.79625 32.0833 10.2083V11.6667H2.91667V10.2083C2.91667 7.79625 4.87958 5.83333 7.29167 5.83333ZM27.7083 32.0833H7.29167C4.87958 32.0833 2.91667 30.1204 2.91667 27.7083V14.5833H32.0833V27.7083C32.0833 30.1204 30.1204 32.0833 27.7083 32.0833Z" fill="#2153A6"/>
</g>
<defs>
<clipPath id="clip0_147_1106">
<rect width="35" height="35" fill="white"/>
</clipPath>
</defs>
</svg>
