<svg width="35" height="35" viewBox="0 0 35 35" fill="none" xmlns="http://www.w3.org/2000/svg">
<g clip-path="url(#clip0_147_1084)">
<path d="M33.5417 35H4.375C1.96292 35 0 33.0371 0 30.625V1.45833C0 0.653333 0.653333 0 1.45833 0C2.26333 0 2.91667 0.653333 2.91667 1.45833V30.625C2.91667 31.4285 3.57146 32.0833 4.375 32.0833H33.5417C34.3467 32.0833 35 32.7367 35 33.5417C35 34.3467 34.3467 35 33.5417 35ZM35.0088 24.8048L35.0306 17.5438C35.0335 16.3858 34.5669 15.2527 33.7488 14.4375L30.8015 11.4902C29.1477 9.83646 26.266 9.83646 24.6138 11.4902L21.8735 14.229L16.2167 8.57354C14.5644 6.91979 11.6827 6.91979 10.0304 8.57354L7.11375 11.4902C6.28687 12.3156 5.83188 13.4152 5.83188 14.5833V24.7917C5.83188 27.2038 7.79479 29.1667 10.2069 29.1667H30.6323C33.0385 29.1667 35.0015 27.2096 35.0073 24.8048H35.0088ZM14.156 10.6356L20.844 17.3221C21.4142 17.8923 22.3358 17.8923 22.906 17.3221L26.6773 13.5523C27.2271 13.001 28.1881 13.001 28.7394 13.5523L31.6867 16.4996C31.9623 16.7752 32.114 17.1427 32.1125 17.535L32.0906 24.796C32.0892 25.5967 31.4344 26.25 30.6323 26.25H10.2083C9.40479 26.25 8.75 25.5952 8.75 24.7917V14.5833C8.75 14.1998 8.90604 13.8235 9.17729 13.5523L12.094 10.6356C12.3681 10.36 12.7342 10.2083 13.125 10.2083C13.5158 10.2083 13.8804 10.36 14.156 10.6356Z" fill="#2153A6"/>
</g>
<defs>
<clipPath id="clip0_147_1084">
<rect width="35" height="35" fill="white"/>
</clipPath>
</defs>
</svg>
